<svg xmlns="http://www.w3.org/2000/svg" version="1.1" xmlns:xlink="http://www.w3.org/1999/xlink" viewBox="0 0 200 200"><rect width="200" height="200" fill="url('#gradient')"></rect><defs><linearGradient id="gradient" gradientTransform="rotate(94 0.5 0.5)"><stop offset="0%" stop-color="#b7b8ba"></stop><stop offset="100%" stop-color="#ebf1f1"></stop></linearGradient></defs><g><g fill="#242f35" transform="matrix(4.253865681975537,0,0,4.253865681975537,5.435120903012276,131.48094855536772)" stroke="#323847" stroke-width="0"><path d="M9.89-8.57L9.89-6.03L4.50-6.03L4.50-2.64L10.87-2.64L10.87 0L1.07 0L1.07-14.22L10.89-14.22L10.89-11.57L4.50-11.57L4.50-8.57L9.89-8.57ZM16.40-2.34L16.40-2.34Q17.09-2.34 17.47-2.72Q17.85-3.10 17.84-3.77L17.84-3.77L20.93-3.77Q20.93-2.03 19.68-0.92Q18.44 0.20 16.47 0.20L16.47 0.20Q14.17 0.20 12.84-1.25Q11.51-2.70 11.51-5.25L11.51-5.25L11.51-5.39Q11.51-6.99 12.10-8.22Q12.70-9.44 13.81-10.10Q14.92-10.76 16.45-10.76L16.45-10.76Q18.51-10.76 19.72-9.62Q20.93-8.48 20.93-6.52L20.93-6.52L17.84-6.52Q17.84-7.34 17.44-7.78Q17.04-8.22 16.37-8.22L16.37-8.22Q15.09-8.22 14.87-6.59L14.87-6.59Q14.80-6.07 14.80-5.17L14.80-5.17Q14.80-3.57 15.19-2.96Q15.57-2.34 16.40-2.34ZM25.54-15L25.54-9.43Q26.59-10.76 28.23-10.76L28.23-10.76Q29.98-10.76 30.87-9.73Q31.76-8.69 31.78-6.67L31.78-6.67L31.78 0L28.48 0L28.48-6.59Q28.48-7.43 28.13-7.83Q27.79-8.22 26.97-8.22L26.97-8.22Q25.96-8.22 25.54-7.58L25.54-7.58L25.54 0L22.25 0L22.25-15L25.54-15ZM33.20-4.82L33.19-5.38Q33.19-6.96 33.81-8.20Q34.42-9.43 35.58-10.10Q36.73-10.76 38.28-10.76L38.28-10.76Q40.65-10.76 42.02-9.29Q43.39-7.82 43.39-5.29L43.39-5.29L43.39-5.18Q43.39-2.71 42.02-1.25Q40.64 0.20 38.30 0.20L38.30 0.20Q36.04 0.20 34.68-1.16Q33.31-2.51 33.20-4.82L33.20-4.82ZM36.49-5.77L36.48-5.18Q36.48-3.71 36.94-3.03Q37.40-2.34 38.30-2.34L38.30-2.34Q40.06-2.34 40.10-5.05L40.10-5.05L40.10-5.38Q40.10-8.22 38.28-8.22L38.28-8.22Q36.63-8.22 36.49-5.77L36.49-5.77Z"></path></g></g></svg>